<svg width="63" height="55" viewBox="0 0 63 55" fill="none" xmlns="http://www.w3.org/2000/svg">
<path d="M63 16.9583C63 16.901 63 16.8438 63 16.7865V16.5C63 16.4427 63 16.4427 63 16.3854C62.874 12.0885 60.984 8.02083 57.582 4.98438L57.519 4.92708C53.991 1.77604 49.329 0 44.352 0C39.501 0 34.965 1.66146 31.5 4.69792C28.035 1.66146 23.499 0 18.648 0C13.671 0 9.009 1.77604 5.418 4.98438C2.079 8.02083 0.189 12.0312 0.063 16.3281C0 16.3281 0 16.3854 0 16.4427V31.2812C0 31.625 0.126 31.9115 0.378 32.1406L16.506 46.8073V53.7396C16.506 54.4271 17.073 54.9427 17.829 54.9427C18.585 54.9427 19.152 54.4271 19.152 53.7396V46.2917C19.152 45.9479 19.026 45.6615 18.774 45.4323L2.646 30.8229V17.875C4.221 18.3906 5.355 19.7083 5.355 21.3125V27.8438C5.355 28.1875 5.481 28.474 5.733 28.7031L8.253 30.9948L16.569 38.5573C16.821 38.7865 17.136 38.901 17.514 38.901C17.829 38.901 18.207 38.7865 18.459 38.5573C18.963 38.099 18.963 37.3542 18.459 36.8385L11.151 30.1927C11.466 30.0781 11.781 29.9635 12.159 29.9635C12.978 29.9635 13.734 30.1927 14.364 30.651L24.759 39.1302V53.6823C24.759 54.3698 25.326 54.8854 26.082 54.8854C26.838 54.8854 27.405 54.3698 27.405 53.6823V48.8698L30.618 51.5052C30.87 51.7344 31.185 51.7917 31.5 51.7917C31.815 51.7917 32.13 51.6771 32.382 51.5052L35.595 48.9271V53.7396C35.595 54.4271 36.162 54.9427 36.918 54.9427C37.674 54.9427 38.241 54.4271 38.241 53.7396V39.1875L48.699 30.7083C49.266 30.25 50.085 29.9635 50.904 30.0208C51.282 30.0208 51.597 30.1354 51.912 30.25L44.541 36.8385C44.037 37.2969 44.037 38.0417 44.541 38.5573C44.793 38.7865 45.108 38.901 45.486 38.901C45.801 38.901 46.179 38.7865 46.431 38.5573L54.747 30.9948L57.267 28.7031C57.519 28.474 57.645 28.1875 57.645 27.8438V21.3125C57.645 19.7083 58.779 18.3906 60.354 17.875V30.8229L44.226 45.4896C43.974 45.7188 43.848 46.0052 43.848 46.349V53.7969C43.848 54.4844 44.415 55 45.171 55C45.927 55 46.494 54.4844 46.494 53.7969V46.8646L62.622 32.2552C62.874 32.026 63 31.7396 63 31.3958V17.2448C63 17.1302 63 17.0156 63 16.9583ZM56.952 17.0729C55.692 18.2188 54.999 19.7083 54.999 21.3698V27.3854L53.739 28.5312C52.92 28.0156 51.975 27.7292 50.967 27.6719C49.455 27.6146 48.006 28.0729 46.872 28.9896L36.036 37.7552C35.784 37.9844 35.595 38.3281 35.595 38.6719V45.7188L31.5 48.9844L27.405 45.6615V38.6146C27.405 38.2708 27.216 37.9271 26.964 37.6979L16.065 28.875C14.931 27.9583 13.482 27.5 11.97 27.5573C10.962 27.6146 10.017 27.901 9.198 28.4167L7.938 27.2708V21.3125C7.938 18.4479 5.67 15.9844 2.709 15.4115C3.087 12.1458 4.662 9.05208 7.308 6.64583C10.332 3.89583 14.301 2.40625 18.585 2.40625C22.869 2.40625 26.838 3.89583 29.862 6.64583L30.492 7.21875C30.996 7.67708 31.815 7.67708 32.382 7.21875L33.012 6.64583C36.036 3.89583 40.005 2.40625 44.289 2.40625C48.573 2.40625 52.542 3.89583 55.566 6.64583L55.629 6.70312C58.212 9.10938 59.787 12.1458 60.165 15.4688C59.031 15.6979 57.897 16.2135 56.952 17.0729Z" fill="#A0C633"/>
</svg>
