<svg width="56" height="55" viewBox="0 0 56 55" fill="none" xmlns="http://www.w3.org/2000/svg">
<path d="M27.4958 27.9998L22.9038 32.5918C22.4558 33.0398 22.4558 33.7118 22.9038 34.1598C23.3518 34.6077 24.0238 34.6077 24.4718 34.1598L27.2158 31.3598L27.2158 53.3677C27.2158 53.9837 27.7198 54.4877 28.3358 54.4877C28.9518 54.4877 29.4558 53.9837 29.4558 53.3677L29.4558 31.4718L32.0878 34.1037C32.5358 34.5517 33.2078 34.5517 33.6558 34.1037C33.8798 33.8798 33.9918 33.5998 33.9918 33.3198C33.9918 33.0398 33.8798 32.7598 33.6558 32.5358L29.3438 28.2238C29.1758 27.7758 28.7838 27.4958 28.2798 27.4958C27.9998 27.4958 27.7198 27.7198 27.4958 27.9998Z" fill="#A0C633"/>
<path d="M33.5441 48.6635C33.5441 49.2795 34.0481 49.7835 34.6641 49.7835L54.88 49.7835C55.496 49.7835 56 49.2795 56 48.6635C56 48.0475 55.496 47.5435 54.88 47.5435L34.6641 47.5435C34.0481 47.5435 33.5441 47.9915 33.5441 48.6635Z" fill="#A0C633"/>
<path d="M23.1279 48.6635C23.1279 48.0475 22.6239 47.5435 22.0079 47.5435L1.12 47.5435C0.503998 47.5435 -7.58827e-08 48.0475 -4.89566e-08 48.6635C-2.20305e-08 49.2795 0.503998 49.7835 1.12 49.7835L22.0079 49.7835C22.6239 49.7835 23.1279 49.2795 23.1279 48.6635Z" fill="#A0C633"/>
<path d="M33.5441 39.5919C33.5441 40.2079 34.0481 40.7119 34.6641 40.7119L54.88 40.7119C55.496 40.7119 56 40.2079 56 39.5919C56 38.976 55.496 38.472 54.88 38.472L34.6641 38.472C34.0481 38.472 33.5441 38.976 33.5441 39.5919Z" fill="#A0C633"/>
<path d="M23.1279 39.5919C23.1279 38.976 22.6239 38.472 22.0079 38.472L1.12 38.472C0.503998 38.472 -7.58827e-08 38.976 -4.89566e-08 39.5919C-2.20305e-08 40.2079 0.503998 40.7119 1.12 40.7119L22.0079 40.7119C22.6239 40.7119 23.1279 40.2079 23.1279 39.5919Z" fill="#A0C633"/>
<path d="M33.5441 30.5199C33.5441 31.1359 34.0481 31.6399 34.6641 31.6399L54.88 31.6399C55.496 31.6399 56 31.1359 56 30.5199C56 29.9039 55.496 29.3999 54.88 29.3999L34.6641 29.3999C34.0481 29.3999 33.5441 29.9039 33.5441 30.5199Z" fill="#A0C633"/>
<path d="M23.1279 30.5199C23.1279 29.9039 22.6239 29.3999 22.0079 29.3999L1.12 29.3999C0.503998 29.3999 -7.58827e-08 29.9039 -4.89566e-08 30.5199C-2.20305e-08 31.1359 0.503998 31.6399 1.12 31.6399L22.0079 31.6399C22.6239 31.6399 23.1279 31.1359 23.1279 30.5199Z" fill="#A0C633"/>
<path d="M1.12 18.0878C0.503998 18.0878 -2.71709e-07 18.5918 -2.44783e-07 19.2078C-2.17857e-07 19.8238 0.503998 20.3278 1.12 20.3278C3.41599 20.3278 4.47998 21.2238 5.76798 22.2878C7.16797 23.4638 8.79197 24.8078 11.872 24.8078C14.9519 24.8078 16.5759 23.4638 17.9759 22.2878C19.2639 21.2238 20.3279 20.3278 22.6239 20.3278C24.9199 20.3278 25.9839 21.2238 27.2719 22.2878C28.6719 23.4638 30.2959 24.8078 33.3759 24.8078C36.4559 24.8078 38.0798 23.4638 39.4798 22.2878C40.7678 21.2238 41.8318 20.3278 44.1278 20.3278C46.4238 20.3278 47.4878 21.2238 48.7758 22.2878C50.1758 23.5198 51.7998 24.8078 54.8798 24.8078C55.4958 24.8078 55.9998 24.3038 55.9998 23.6878C55.9998 23.0718 55.4958 22.5678 54.8798 22.5678C52.5838 22.5678 51.5198 21.6718 50.2318 20.6078C48.8318 19.4318 47.2078 18.0878 44.1278 18.0878C41.0478 18.0878 39.4238 19.4318 38.0238 20.6078C36.7359 21.6718 35.6719 22.5678 33.3759 22.5678C31.0799 22.5678 30.0159 21.6718 28.7279 20.6078C27.3279 19.4318 25.7039 18.0878 22.6239 18.0878C19.5439 18.0878 17.9199 19.4318 16.5199 20.6078C15.2319 21.6718 14.1679 22.5678 11.872 22.5678C9.57596 22.5678 8.51197 21.6718 7.22397 20.6078C5.82398 19.4318 4.19998 18.0878 1.12 18.0878Z" fill="#A0C633"/>
<path d="M1.12 9.01574C0.503998 9.01574 -2.71709e-07 9.51974 -2.44783e-07 10.1357C-2.17857e-07 10.7517 0.503998 11.2557 1.12 11.2557C3.41599 11.2557 4.47998 12.1517 5.76798 13.2157C7.16797 14.3917 8.79197 15.7357 11.872 15.7357C14.9519 15.7357 16.5759 14.3917 17.9759 13.2157C19.2639 12.1517 20.3279 11.2557 22.6239 11.2557C24.9199 11.2557 25.9839 12.1517 27.2719 13.2157C28.6719 14.3917 30.2959 15.7357 33.3759 15.7357C36.4559 15.7357 38.0798 14.3917 39.4798 13.2157C40.7678 12.1517 41.8318 11.2557 44.1278 11.2557C46.4238 11.2557 47.4878 12.1517 48.7758 13.2157C50.1758 14.3917 51.7998 15.7357 54.8798 15.7357C55.4958 15.7357 55.9998 15.2317 55.9998 14.6157C55.9998 13.9997 55.4958 13.4957 54.8798 13.4957C52.5838 13.4957 51.5198 12.5997 50.2318 11.5357C48.8318 10.3597 47.2078 9.01574 44.1278 9.01574C41.0478 9.01574 39.4238 10.3597 38.0238 11.5357C36.7359 12.5997 35.6719 13.4957 33.3759 13.4957C31.0799 13.4957 30.0159 12.5997 28.7279 11.5357C27.3279 10.3597 25.7039 9.01574 22.6239 9.01574C19.5439 9.01574 17.9199 10.3597 16.5199 11.5357C15.2319 12.5997 14.1679 13.4957 11.872 13.4957C9.57596 13.4957 8.51197 12.5997 7.22397 11.5357C5.82398 10.3597 4.19998 9.01574 1.12 9.01574Z" fill="#A0C633"/>
<path d="M22.6239 -4.80362e-06C19.5439 -4.66899e-06 17.9199 1.34399 16.5199 2.51999C15.2319 3.58398 14.1679 4.47998 11.872 4.47998C9.57596 4.47998 8.51197 3.58398 7.22397 2.51999C5.82398 1.28799 4.19998 -3.99828e-06 1.12 -3.86365e-06C0.503998 -3.83673e-06 -2.71709e-07 0.503994 -2.44783e-07 1.11999C-2.17857e-07 1.73599 0.503998 2.23999 1.12 2.23999C3.41599 2.23999 4.47998 3.13598 5.76798 4.19998C7.16797 5.37598 8.79197 6.71997 11.872 6.71997C14.9519 6.71997 16.5759 5.37598 17.9759 4.19998C19.2639 3.13598 20.3279 2.23999 22.6239 2.23999C24.9199 2.23999 25.9839 3.13598 27.2719 4.19998C28.6719 5.37597 30.2959 6.71997 33.3759 6.71997C36.4559 6.71997 38.0798 5.37597 39.4798 4.19998C40.7678 3.13598 41.8318 2.23999 44.1278 2.23999C46.4238 2.23999 47.4878 3.13598 48.7758 4.19998C50.1758 5.37597 51.7998 6.71997 54.8798 6.71997C55.4958 6.71997 55.9998 6.21597 55.9998 5.59997C55.9998 4.98397 55.4958 4.47998 54.8798 4.47998C52.5838 4.47998 51.5198 3.58398 50.2318 2.51998C48.8318 1.34399 47.2078 -5.87822e-06 44.1278 -5.74359e-06C41.0478 -5.60896e-06 39.4238 1.34399 38.0238 2.51998C36.7359 3.58398 35.6719 4.47998 33.3759 4.47998C31.0799 4.47998 30.0159 3.58398 28.7279 2.51999C27.3279 1.28799 25.7039 -4.93825e-06 22.6239 -4.80362e-06Z" fill="#A0C633"/>
</svg>
