<svg width="63" height="59" viewBox="0 0 63 59" fill="none" xmlns="http://www.w3.org/2000/svg">
<path d="M57.582 5.6781L56.637 6.65708L57.582 5.6781C53.991 2.02323 49.329 0 44.352 0C39.501 0 34.965 1.8927 31.5 5.35177C28.035 1.8927 23.499 0 18.648 0C13.671 0 9.009 2.02323 5.418 5.6781C1.953 9.33296 0 14.1626 0 19.3186C0 26.302 2.898 32.9591 7.875 37.5929L30.618 58.6737C30.87 58.9347 31.185 59 31.5 59C31.815 59 32.13 58.8695 32.382 58.6737L55.125 37.5929C60.102 32.9591 63 26.302 63 19.3186C63 14.1626 61.047 9.33296 57.582 5.6781ZM44.352 2.74115C48.636 2.74115 52.605 4.43805 55.629 7.63606H55.692C58.338 10.3772 59.913 13.9015 60.291 17.7522C59.85 17.4911 59.283 17.4911 58.842 17.8175C58.338 18.2091 58.212 18.8617 58.401 19.4491C58.401 19.5144 58.338 19.5796 58.338 19.5796C58.149 18.927 57.96 17.8175 57.897 17.0996C57.834 16.708 57.771 16.4469 57.771 16.2511C57.582 15.4027 56.889 14.75 55.944 14.5542C54.936 14.2931 53.928 14.6847 53.361 15.5332C52.416 16.8385 53.109 17.7522 53.361 18.0785C53.487 18.2743 53.613 18.4049 53.613 18.927C53.613 19.3186 52.731 19.8407 52.101 19.9712C51.534 20.1018 51.156 20.5586 51.093 21.146C51.03 21.7334 51.345 22.2555 51.786 22.5166C51.849 22.5166 52.227 22.7777 52.857 22.9734C52.731 23.4303 52.605 24.083 52.605 24.9314C52.542 26.6936 51.03 27.9336 50.463 28.4557C49.14 29.4347 49.392 31.458 49.707 33.3507C49.833 34.1338 49.959 34.9823 49.896 35.5044C49.833 36.2223 48.195 38.4414 47.313 39.6161C46.116 41.2478 45.36 42.2268 45.045 43.0752C44.793 43.4015 43.47 43.5973 42.273 43.5321C42.336 43.1405 42.399 42.6836 42.399 42.2268C42.399 41.313 42.084 40.3993 41.769 39.4856C41.58 38.833 41.328 38.115 41.139 37.3319C41.013 36.7445 41.265 36.1571 41.517 35.5044C41.832 34.656 42.336 33.5465 41.643 32.4369C40.446 30.4137 40.32 29.7611 40.32 29.5653C40.32 28.4557 39.375 25.9104 38.241 24.9314C37.548 24.344 36.855 24.4093 36.54 24.4746C35.973 24.6051 32.823 24.5398 31.122 24.4746C30.24 24.4746 29.421 24.4093 28.917 24.4093C28.287 24.4093 27.846 22.7777 27.531 18.7965C27.468 17.8175 27.846 16.8385 28.728 15.9248C30.744 13.771 34.461 12.7268 35.154 12.7268C37.485 13.1184 39.186 13.8363 40.194 14.8153C41.958 16.6427 43.911 15.9248 45.045 15.5332C45.423 15.4027 45.801 15.2721 46.053 15.2069C47.061 15.0763 47.754 14.2279 47.754 13.1836C47.691 11.4867 45.549 9.20243 43.092 9.00664C42.084 8.94137 41.895 8.74557 41.895 8.74557C41.832 8.54978 41.643 8.22345 41.265 7.96239L41.076 7.83186C40.383 7.24447 38.493 5.54757 36.099 5.54757C35.91 5.54757 35.721 5.54757 35.532 5.54757C38.115 3.72013 41.139 2.74115 44.352 2.74115ZM2.646 19.3186C2.646 14.8805 4.284 10.7688 7.371 7.5708C9.702 5.15597 12.6 3.5896 15.75 3.00221C15.876 3.32854 16.002 3.72013 16.128 4.04646C16.506 5.02544 17.01 6.20022 16.758 6.78761C16.506 7.30973 14.427 8.02765 13.293 8.28872C11.151 6.59181 9.198 8.02765 7.938 9.52876C7.434 10.1814 6.93 10.7688 6.489 11.2257C4.473 13.6405 3.591 14.6195 3.591 15.729C3.591 16.0553 3.591 16.6427 3.528 17.2954C3.528 18.2743 3.465 19.5144 3.465 20.4281C3.465 21.9945 3.591 24.2135 3.591 24.344C3.654 25.0619 4.158 25.5841 4.851 25.6493C5.544 25.7146 6.111 25.1925 6.237 24.4746C6.237 24.2788 6.3 24.083 6.363 23.8219C7.119 24.5398 8.19 25.9757 8.442 26.4978C8.757 27.2157 9.513 27.7378 10.521 28.3905C11.088 28.7821 11.655 29.1737 12.159 29.6305C12.474 29.9569 13.041 30.479 13.797 30.2832C13.923 30.3484 14.175 30.479 14.364 30.6748C15.435 31.3927 16.254 31.719 16.758 31.8496C16.758 32.0454 16.695 32.3064 16.695 32.5022C16.569 33.6117 16.254 34.2644 15.939 34.8518C15.498 35.7002 15.057 36.6792 15.372 38.2456C15.246 38.2456 15.12 38.2456 14.994 38.2456C14.364 38.3761 13.986 38.833 13.797 39.3551L9.639 35.5044C5.166 31.3927 2.646 25.5188 2.646 19.3186ZM31.5 55.802L17.01 42.3573C17.262 42.2268 17.514 42.0962 17.64 41.9004C18.27 41.1173 18.396 39.7467 17.955 37.7887C17.829 37.0708 17.955 36.8097 18.27 36.0918C18.585 35.3739 19.089 34.3949 19.278 32.8285C19.467 31.1316 19.593 29.8263 17.703 29.3042C17.262 29.1737 16.695 29.0431 15.75 28.3905C14.931 27.8031 14.175 27.281 13.482 27.281C12.978 26.8894 12.474 26.4978 11.97 26.1715C11.529 25.8451 10.899 25.4535 10.773 25.323C10.458 24.6051 8.379 21.6029 6.804 20.9502C6.552 20.885 6.363 20.8197 6.111 20.8197C6.111 20.7544 6.111 20.6239 6.111 20.5586C6.111 19.6449 6.174 18.4701 6.174 17.4911C6.174 16.8385 6.237 16.3164 6.237 15.9248C6.426 15.4679 7.497 14.2931 8.442 13.0531C8.883 12.531 9.387 11.9436 9.891 11.2909C11.088 9.92035 11.403 10.1814 11.781 10.5077C12.033 10.7035 12.348 11.0299 12.915 11.0299C12.978 11.0299 18.081 10.3772 19.152 7.83186C19.845 6.20022 19.152 4.50332 18.522 3.00221C18.459 2.93695 18.459 2.80642 18.396 2.74115C18.459 2.74115 18.522 2.74115 18.585 2.74115C22.869 2.74115 26.838 4.43805 29.862 7.5708L30.492 8.22345L30.555 8.28872C30.618 8.35398 30.681 8.41925 30.807 8.48451C30.87 8.54978 30.933 8.54978 30.996 8.54978C31.059 8.54978 31.185 8.61504 31.248 8.61504C31.311 8.61504 31.437 8.61504 31.5 8.61504C31.563 8.61504 31.563 8.61504 31.626 8.61504C31.626 8.61504 34.02 8.22345 36.036 8.22345C37.422 8.22345 38.745 9.33296 39.312 9.85509C39.375 9.92035 39.438 9.92035 39.438 9.98562C39.879 10.8993 40.635 11.552 42.777 11.7478C43.596 11.8131 44.226 12.3352 44.667 12.792C44.478 12.8573 44.289 12.9226 44.1 12.9878C42.903 13.4447 42.525 13.51 41.958 12.9226C40.572 11.4867 38.367 10.5077 35.469 10.0509C34.083 9.85509 29.673 11.2257 27.027 13.771C25.389 15.3374 24.633 17.1648 24.822 19.1228C25.137 23.104 25.515 27.2157 28.854 27.2157C29.358 27.2157 30.114 27.2157 30.996 27.281C34.02 27.3462 35.721 27.3462 36.666 27.281C37.044 27.8031 37.611 29.1084 37.611 29.6305C37.611 30.74 38.241 32.1106 39.249 33.8075C39.186 33.938 39.06 34.2644 38.997 34.5254C38.619 35.3739 38.178 36.5487 38.493 37.9845C38.682 38.9635 38.934 39.7467 39.186 40.3993C39.438 41.1825 39.627 41.8352 39.627 42.292C39.627 42.6184 39.564 43.01 39.501 43.3363C39.375 44.0542 39.186 44.8374 39.69 45.49C39.942 45.8816 40.32 46.1427 40.761 46.208C40.761 46.208 41.139 46.2732 41.643 46.2732L31.5 55.802ZM53.361 35.5697L52.416 36.4834C52.479 36.2223 52.542 35.9613 52.605 35.7002C52.668 34.8518 52.479 33.8728 52.353 32.9591C52.227 32.2411 52.038 31.0664 52.164 30.6095C53.172 29.8263 55.188 27.9336 55.314 25.1272C55.377 24.4093 55.44 23.8872 55.566 23.4303C55.692 22.9735 55.881 21.9292 55.377 21.2113C55.566 21.0155 55.755 20.8197 55.881 20.5586V20.6239C56.259 21.7987 57.078 22.9082 57.204 23.0387C57.456 23.365 57.834 23.5608 58.212 23.5608C58.59 23.5608 58.968 23.4303 59.22 23.104C59.535 22.7124 59.976 22.1903 60.291 21.6681C59.661 26.9546 57.267 31.9148 53.361 35.5697Z" fill="#A0C633"/>
</svg>
